<svg version="1.1" id="Layer_1" xmlns="http://www.w3.org/2000/svg" xmlns:xlink="http://www.w3.org/1999/xlink" x="0px" y="0px"
	 width="100%" viewBox="0 0 200 200" enable-background="new 0 0 200 200" xml:space="preserve">
<path fill="#ED4E33" opacity="1.000000" stroke="none" 
	d="
M92.000000,201.000000 
	C61.352196,201.000000 31.204393,201.000000 1.028295,201.000000 
	C1.028295,134.393890 1.028295,67.787773 1.028295,1.090827 
	C67.564316,1.090827 134.128799,1.090827 200.846649,1.090827 
	C200.846649,67.666397 200.846649,134.333160 200.846649,201.000000 
	C164.788071,201.000000 128.644028,201.000000 92.000000,201.000000 
M143.645874,74.146858 
	C119.518349,79.693001 96.433052,88.369850 73.522049,98.217690 
	C72.841202,77.458527 93.065422,60.666203 113.261101,64.520386 
	C115.543190,64.955902 117.757591,65.770576 120.047318,66.128036 
	C120.826561,66.249687 121.740967,65.505569 122.593605,65.157043 
	C122.232162,64.325294 122.055321,63.310471 121.460243,62.710430 
	C120.790794,62.035404 119.764374,61.689999 118.858536,61.277386 
	C99.446625,52.435253 76.225853,59.222664 64.985344,77.410782 
	C61.688869,82.744766 59.089046,88.605484 56.875957,94.490303 
	C53.541924,103.355797 48.348927,110.591400 40.681747,116.127022 
	C38.391342,117.780663 36.031567,119.474640 34.198418,121.580818 
	C32.802204,123.184998 32.188152,125.469933 31.226124,127.452003 
	C33.235600,128.324051 35.184872,129.701065 37.268696,129.949509 
	C40.377243,130.320114 43.595844,130.062454 46.740837,129.777023 
	C55.971912,128.939255 64.545273,130.742538 72.717384,135.196915 
	C77.224602,137.653656 81.995667,139.751114 86.849571,141.425644 
	C108.816223,149.003891 132.124161,138.927322 140.872925,118.144997 
	C141.479111,116.705063 141.086533,114.844681 141.158417,113.179817 
	C139.827515,114.084167 138.034607,114.695580 137.244019,115.942505 
	C133.380356,122.036232 128.300156,126.659668 121.749413,129.626999 
	C102.833199,138.195633 78.859695,127.208382 75.087288,107.848770 
	C95.582397,98.504478 116.661018,90.507927 138.657745,85.080460 
	C139.653580,84.834747 141.694916,86.449409 142.339600,87.675781 
	C143.509735,89.901695 143.994598,92.487839 145.203949,96.309029 
	C153.605911,90.288002 161.216141,85.013824 168.566925,79.399948 
	C169.878769,78.398079 171.045578,75.665390 170.579041,74.322723 
	C170.139923,73.058990 167.406860,71.785973 165.766205,71.885681 
	C158.654083,72.317871 151.572433,73.251083 143.645874,74.146858 
z"/>
<path fill="#FAEEE1" opacity="1.000000" stroke="none" 
	d="
M144.062775,74.074493 
	C151.572433,73.251083 158.654083,72.317871 165.766205,71.885681 
	C167.406860,71.785973 170.139923,73.058990 170.579041,74.322723 
	C171.045578,75.665390 169.878769,78.398079 168.566925,79.399948 
	C161.216141,85.013824 153.605911,90.288002 145.203949,96.309029 
	C143.994598,92.487839 143.509735,89.901695 142.339600,87.675781 
	C141.694916,86.449409 139.653580,84.834747 138.657745,85.080460 
	C116.661018,90.507927 95.582397,98.504478 75.087288,107.848770 
	C78.859695,127.208382 102.833199,138.195633 121.749413,129.626999 
	C128.300156,126.659668 133.380356,122.036232 137.244019,115.942505 
	C138.034607,114.695580 139.827515,114.084167 141.158417,113.179825 
	C141.086533,114.844681 141.479111,116.705063 140.872925,118.144997 
	C132.124161,138.927322 108.816223,149.003891 86.849571,141.425644 
	C81.995667,139.751114 77.224602,137.653656 72.717384,135.196915 
	C64.545273,130.742538 55.971912,128.939255 46.740837,129.777023 
	C43.595844,130.062454 40.377243,130.320114 37.268696,129.949509 
	C35.184872,129.701065 33.235600,128.324051 31.226124,127.452003 
	C32.188152,125.469933 32.802204,123.184998 34.198418,121.580818 
	C36.031567,119.474640 38.391342,117.780663 40.681747,116.127022 
	C48.348927,110.591400 53.541924,103.355797 56.875957,94.490303 
	C59.089046,88.605484 61.688869,82.744766 64.985344,77.410782 
	C76.225853,59.222664 99.446625,52.435253 118.858536,61.277386 
	C119.764374,61.689999 120.790794,62.035404 121.460243,62.710430 
	C122.055321,63.310471 122.232162,64.325294 122.593605,65.157043 
	C121.740967,65.505569 120.826561,66.249687 120.047318,66.128036 
	C117.757591,65.770576 115.543190,64.955902 113.261101,64.520386 
	C93.065422,60.666203 72.841202,77.458527 73.522049,98.217690 
	C96.433052,88.369850 119.518349,79.693001 144.062775,74.074493 
z"/>
</svg>